<?xml version="1.0" encoding="UTF-8" standalone="no"?>
<!-- Created with Inkscape (http://www.inkscape.org/) -->

<svg
   xmlns:dc="http://purl.org/dc/elements/1.1/"
   xmlns:cc="http://creativecommons.org/ns#"
   xmlns:rdf="http://www.w3.org/1999/02/22-rdf-syntax-ns#"
   xmlns:svg="http://www.w3.org/2000/svg"
   xmlns="http://www.w3.org/2000/svg"
   xmlns:sodipodi="http://sodipodi.sourceforge.net/DTD/sodipodi-0.dtd"
   xmlns:inkscape="http://www.inkscape.org/namespaces/inkscape"
   width="128px"
   height="128px"
   viewBox="0 0 128 128"
   version="1.1"
   id="SVGRoot"
   inkscape:version="0.92.1 r15371"
   sodipodi:docname="saper_logo.svg"
   inkscape:export-filename="C:\Users\Bartek\Desktop\saper_logo.png"
   inkscape:export-xdpi="192.00002"
   inkscape:export-ydpi="192.00002">
  <sodipodi:namedview
     id="base"
     pagecolor="#ffffff"
     bordercolor="#666666"
     borderopacity="1.0"
     inkscape:pageopacity="0.0"
     inkscape:pageshadow="2"
     inkscape:zoom="2.8284271"
     inkscape:cx="39.180755"
     inkscape:cy="82.321501"
     inkscape:document-units="px"
     inkscape:current-layer="layer1"
     showgrid="false"
     inkscape:window-width="1920"
     inkscape:window-height="1017"
     inkscape:window-x="-8"
     inkscape:window-y="-8"
     inkscape:window-maximized="1"
     inkscape:grid-bbox="true" />
  <defs
     id="defs4865" />
  <metadata
     id="metadata4868">
    <rdf:RDF>
      <cc:Work
         rdf:about="">
        <dc:format>image/svg+xml</dc:format>
        <dc:type
           rdf:resource="http://purl.org/dc/dcmitype/StillImage" />
        <dc:title></dc:title>
      </cc:Work>
    </rdf:RDF>
  </metadata>
  <g
     id="layer1"
     inkscape:groupmode="layer"
     inkscape:label="Layer 1">
    <path
       inkscape:connector-curvature="0"
       style="fill:#000000;fill-opacity:1;stroke:none;stroke-width:133.58403015;stroke-linecap:round;stroke-linejoin:miter;stroke-miterlimit:4;stroke-dasharray:none;stroke-opacity:1"
       d="M 69.617447,69.509852 A 25.876936,25.876936 0 0 1 43.740505,95.38678 25.876936,25.876936 0 0 1 17.863567,69.509852 25.876936,25.876936 0 0 1 43.740505,43.632906 25.876936,25.876936 0 0 1 69.617447,69.509852 Z"
       id="path4516-2"
       inkscape:export-filename="C:\Users\Bartek\logo.png"
       inkscape:export-xdpi="352"
       inkscape:export-ydpi="352" />
    <path
       style="fill:#000000;stroke:#000000;stroke-width:0.44180134px;stroke-linecap:butt;stroke-linejoin:miter;stroke-opacity:1"
       d="m 38.454664,44.066822 c 0,0 1.764052,-0.356556 4.575798,-0.552256 2.909539,-0.202513 5.443622,0.473354 5.443622,0.473354 l -5.40867,-16.732868 z"
       id="path4525-1"
       inkscape:connector-curvature="0"
       sodipodi:nodetypes="csccc"
       inkscape:export-filename="C:\Users\Bartek\logo.png"
       inkscape:export-xdpi="352"
       inkscape:export-ydpi="352" />
    <path
       style="fill:#000000;stroke:#000000;stroke-width:0.44180134px;stroke-linecap:butt;stroke-linejoin:miter;stroke-opacity:1"
       d="m 22.33292,54.846082 c 0,0 0.539687,-0.703572 2.363755,-2.852279 1.887505,-2.223445 3.861706,-3.656119 3.861706,-3.656119 L 13.086196,40.610937 Z"
       id="path4525-6-0"
       inkscape:connector-curvature="0"
       sodipodi:nodetypes="csccc"
       inkscape:export-filename="C:\Users\Bartek\logo.png"
       inkscape:export-xdpi="352"
       inkscape:export-ydpi="352" />
    <path
       style="fill:#000000;stroke:#000000;stroke-width:0.44180134px;stroke-linecap:butt;stroke-linejoin:miter;stroke-opacity:1"
       d="m 58.755102,48.433533 c 0,0 0.694123,0.551784 2.810948,2.412776 2.190438,1.925714 3.588713,3.924416 3.588713,3.924416 l 7.993424,-15.336098 z"
       id="path4525-6-2-8"
       inkscape:connector-curvature="0"
       sodipodi:nodetypes="csccc"
       inkscape:export-filename="C:\Users\Bartek\logo.png"
       inkscape:export-xdpi="352"
       inkscape:export-ydpi="352" />
    <path
       style="fill:#000000;stroke:#000000;stroke-width:0.44180134px;stroke-linecap:butt;stroke-linejoin:miter;stroke-opacity:1"
       d="m 68.563168,62.613577 c 0,0 0.187301,0.866712 0.645561,3.647767 0.474207,2.877766 0.289326,5.310012 0.289326,5.310012 L 85.40003,64.772884 Z"
       id="path4525-6-2-0-8"
       inkscape:connector-curvature="0"
       sodipodi:nodetypes="csccc"
       inkscape:export-filename="C:\Users\Bartek\logo.png"
       inkscape:export-xdpi="352"
       inkscape:export-ydpi="352" />
    <path
       style="fill:#000000;stroke:#000000;stroke-width:0.44180134px;stroke-linecap:butt;stroke-linejoin:miter;stroke-opacity:1"
       d="m 17.776034,71.26652 c 0,0 -0.0089,-0.886687 0.102423,-3.703037 0.115186,-2.914283 0.786179,-5.259453 0.786179,-5.259453 L 1.71922,65.760084 Z"
       id="path4525-6-2-0-0-3"
       inkscape:connector-curvature="0"
       sodipodi:nodetypes="csccc"
       inkscape:export-filename="C:\Users\Bartek\logo.png"
       inkscape:export-xdpi="352"
       inkscape:export-ydpi="352" />
    <path
       style="fill:#000000;stroke:#000000;stroke-width:0.44180134px;stroke-linecap:butt;stroke-linejoin:miter;stroke-opacity:1"
       d="m 67.348002,80.529749 c 0,0 -0.433646,0.773472 -1.932024,3.160734 -1.550498,2.470307 -3.299771,4.170307 -3.299771,4.170307 l 16.417357,5.4371 z"
       id="path4525-6-2-0-9-6"
       inkscape:connector-curvature="0"
       sodipodi:nodetypes="csccc"
       inkscape:export-filename="C:\Users\Bartek\logo.png"
       inkscape:export-xdpi="352"
       inkscape:export-ydpi="352" />
    <path
       style="fill:#000000;stroke:#000000;stroke-width:0.44180134px;stroke-linecap:butt;stroke-linejoin:miter;stroke-opacity:1"
       d="m 49.309067,94.84292 c 0,0 -0.8766,0.1336 -3.680581,0.41984 -2.901497,0.29615 -5.317757,-0.0381 -5.317757,-0.0381 l 5.806756,16.29026 z"
       id="path4525-6-2-0-9-1-1"
       inkscape:connector-curvature="0"
       sodipodi:nodetypes="csccc"
       inkscape:export-filename="C:\Users\Bartek\logo.png"
       inkscape:export-xdpi="352"
       inkscape:export-ydpi="352" />
    <path
       style="fill:#000000;stroke:#000000;stroke-width:0.44180134px;stroke-linecap:butt;stroke-linejoin:miter;stroke-opacity:1"
       d="m 26.914833,88.97661 c 0,0 -0.643669,-0.60989 -2.591155,-2.64742 -2.015214,-2.108382 -3.234925,-4.220798 -3.234925,-4.220798 L 11.795649,96.69365 Z"
       id="path4525-6-2-0-9-7-6"
       inkscape:connector-curvature="0"
       sodipodi:nodetypes="csccc"
       inkscape:export-filename="C:\Users\Bartek\logo.png"
       inkscape:export-xdpi="352"
       inkscape:export-ydpi="352" />
    <path
       style="fill:#1a1a1a;stroke:#000000;stroke-width:0.28905097px;stroke-linecap:butt;stroke-linejoin:miter;stroke-opacity:1"
       d="m 24.386712,52.495173 c 0,0 0.361644,-0.449425 1.583945,-1.822005 1.264813,-1.420314 2.587724,-2.335484 2.587724,-2.335484 L 18.1905,43.401925 Z"
       id="path4525-6-24-8"
       inkscape:connector-curvature="0"
       sodipodi:nodetypes="csccc"
       inkscape:export-filename="C:\Users\Bartek\logo.png"
       inkscape:export-xdpi="352"
       inkscape:export-ydpi="352" />
    <path
       style="fill:#1a1a1a;stroke:#000000;stroke-width:0.22529039px;stroke-linecap:butt;stroke-linejoin:miter;stroke-opacity:1"
       d="m 18.211507,66.874322 c 0,0 -0.0046,-0.452153 0.05223,-1.888308 0.05874,-1.486108 0.400902,-2.681984 0.400902,-2.681984 l -8.641077,1.762353 z"
       id="path4525-6-2-0-0-9-3"
       inkscape:connector-curvature="0"
       sodipodi:nodetypes="csccc"
       inkscape:export-filename="C:\Users\Bartek\logo.png"
       inkscape:export-xdpi="352"
       inkscape:export-ydpi="352" />
    <path
       style="fill:#1a1a1a;stroke:#000000;stroke-width:0.34583881px;stroke-linecap:butt;stroke-linejoin:miter;stroke-opacity:1"
       d="m 40.582342,44.043592 c 0,0 1.380886,-0.279091 3.581902,-0.432294 2.277563,-0.158465 4.26123,0.370561 4.26123,0.370561 L 44.1916,30.883496 Z"
       id="path4525-0-8"
       inkscape:connector-curvature="0"
       sodipodi:nodetypes="csccc"
       inkscape:export-filename="C:\Users\Bartek\logo.png"
       inkscape:export-xdpi="352"
       inkscape:export-ydpi="352" />
    <path
       style="fill:#1a1a1a;stroke:#000000;stroke-width:0.23907529px;stroke-linecap:butt;stroke-linejoin:miter;stroke-opacity:1"
       d="m 49.266907,94.73355 c 0,0 -0.474358,0.0722 -1.9917,0.22716 -1.570112,0.16031 -2.87764,-0.0206 -2.87764,-0.0206 l 3.142254,8.81527 z"
       id="path4525-6-2-0-9-1-6-6"
       inkscape:connector-curvature="0"
       sodipodi:nodetypes="csccc"
       inkscape:export-filename="C:\Users\Bartek\logo.png"
       inkscape:export-xdpi="352"
       inkscape:export-ydpi="352" />
    <path
       style="fill:#1a1a1a;stroke:#000000;stroke-width:0.28077778px;stroke-linecap:butt;stroke-linejoin:miter;stroke-opacity:1"
       d="m 67.042996,80.371834 c 0,0 -0.275583,0.491562 -1.227855,2.008735 -0.985389,1.569956 -2.097102,2.650358 -2.097102,2.650358 l 10.4337,3.455443 z"
       id="path4525-6-2-0-9-17-5"
       inkscape:connector-curvature="0"
       sodipodi:nodetypes="csccc"
       inkscape:export-filename="C:\Users\Bartek\logo.png"
       inkscape:export-xdpi="352"
       inkscape:export-ydpi="352" />
    <path
       style="fill:#1a1a1a;stroke:#000000;stroke-width:0.33916447px;stroke-linecap:butt;stroke-linejoin:miter;stroke-opacity:1"
       d="m 68.786754,62.797042 c 0,0 0.143767,0.665365 0.495578,2.800315 0.364036,2.209234 0.22212,4.076425 0.22212,4.076425 l 12.207706,-5.219087 z"
       id="path4525-6-2-0-7-6"
       inkscape:connector-curvature="0"
       sodipodi:nodetypes="csccc"
       inkscape:export-filename="C:\Users\Bartek\logo.png"
       inkscape:export-xdpi="352"
       inkscape:export-ydpi="352" />
    <path
       style="fill:#1a1a1a;stroke:#000000;stroke-width:0.37916666px;stroke-linecap:butt;stroke-linejoin:miter;stroke-opacity:1"
       d="m 58.647551,48.577635 c 0,0 0.59572,0.473555 2.412438,2.070716 1.8799,1.652702 3.079938,3.368059 3.079938,3.368059 l 6.860195,-13.161899 z"
       id="path4525-6-2-2-0"
       inkscape:connector-curvature="0"
       sodipodi:nodetypes="csccc"
       inkscape:export-filename="C:\Users\Bartek\logo.png"
       inkscape:export-xdpi="352"
       inkscape:export-ydpi="352" />
    <path
       inkscape:connector-curvature="0"
       style="fill:#1a1a1a;fill-opacity:1;stroke:none;stroke-width:20.31419563;stroke-linecap:round;stroke-linejoin:miter;stroke-miterlimit:4;stroke-dasharray:none;stroke-opacity:1"
       d="m 58.371133,50.373227 a 6.4627245,2.3960753 23.018738 0 1 -6.891717,-0.328136 6.4627245,2.3960753 23.018738 0 1 -5.002071,-4.731996 6.4627245,2.3960753 23.018738 0 1 6.891718,0.328131 6.4627245,2.3960753 23.018738 0 1 5.00207,4.732001 z"
       id="path4516-6-7"
       inkscape:export-filename="C:\Users\Bartek\logo.png"
       inkscape:export-xdpi="352"
       inkscape:export-ydpi="352" />
    <path
       inkscape:connector-curvature="0"
       style="fill:#333333;fill-opacity:1;stroke:none;stroke-width:10.91148663;stroke-linecap:round;stroke-linejoin:miter;stroke-miterlimit:4;stroke-dasharray:none;stroke-opacity:1"
       d="m 56.891912,48.10949 a 3.5695999,1.2515985 18.031439 0 1 -3.774036,0.09101 3.5695999,1.2515985 18.031439 0 1 -3.016482,-2.294839 3.5695999,1.2515985 18.031439 0 1 3.774039,-0.09101 3.5695999,1.2515985 18.031439 0 1 3.016479,2.294839 z"
       id="path4516-1-4"
       inkscape:export-filename="C:\Users\Bartek\logo.png"
       inkscape:export-xdpi="352"
       inkscape:export-ydpi="352" />
    <rect
       style="fill:#502d16;fill-opacity:1;stroke:none;stroke-width:133.58403015;stroke-linecap:round;stroke-linejoin:miter;stroke-miterlimit:4;stroke-dasharray:none;stroke-opacity:1"
       id="rect4787-3"
       width="2.2314336"
       height="95.059082"
       x="70.355247"
       y="-9.0796356"
       transform="rotate(20.163612)"
       inkscape:export-filename="C:\Users\Bartek\logo.png"
       inkscape:export-xdpi="352"
       inkscape:export-ydpi="352" />
    <path
       style="fill:#ff0000;stroke:none;stroke-width:0.44180134px;stroke-linecap:butt;stroke-linejoin:miter;stroke-opacity:1"
       d="M 71.267809,16.497597 56.138052,57.69984 c 0,0 12.593866,-1.34209 18.419649,0.607108 8.231663,2.754145 13.123009,12.071232 21.30221,14.977459 5.467139,1.942659 17.363489,1.217652 17.363489,1.217652 L 126.89941,37.258742 C 122.26346,35.52863 115.3674,37.767799 110.16429,35.689446 101.41475,32.19449 98.013668,21.648247 87.949096,18.213551 82.658935,16.408096 75.903777,18.226906 71.267809,16.497597 Z"
       id="path4791-2"
       inkscape:connector-curvature="0"
       sodipodi:nodetypes="ccaaccasc"
       inkscape:export-filename="C:\Users\Bartek\logo.png"
       inkscape:export-xdpi="352"
       inkscape:export-ydpi="352" />
  </g>
</svg>
