<?xml version="1.0" encoding="UTF-8" standalone="no"?>
<!-- Created with Inkscape (http://www.inkscape.org/) -->

<svg
   xmlns:dc="http://purl.org/dc/elements/1.1/"
   xmlns:cc="http://creativecommons.org/ns#"
   xmlns:rdf="http://www.w3.org/1999/02/22-rdf-syntax-ns#"
   xmlns:svg="http://www.w3.org/2000/svg"
   xmlns="http://www.w3.org/2000/svg"
   xmlns:sodipodi="http://sodipodi.sourceforge.net/DTD/sodipodi-0.dtd"
   xmlns:inkscape="http://www.inkscape.org/namespaces/inkscape"
   width="297mm"
   height="210mm"
   viewBox="0 0 297 210"
   version="1.1"
   id="svg8"
   inkscape:version="0.92.1 r15371"
   sodipodi:docname="saper.svg">
  <defs
     id="defs2" />
  <sodipodi:namedview
     id="base"
     pagecolor="#ffffff"
     bordercolor="#666666"
     borderopacity="1.0"
     inkscape:pageopacity="0.0"
     inkscape:pageshadow="2"
     inkscape:zoom="1"
     inkscape:cx="445.87816"
     inkscape:cy="305.26336"
     inkscape:document-units="mm"
     inkscape:current-layer="layer2"
     showgrid="false"
     inkscape:snap-global="false"
     inkscape:window-width="1184"
     inkscape:window-height="1008"
     inkscape:window-x="-7"
     inkscape:window-y="0"
     inkscape:window-maximized="0" />
  <metadata
     id="metadata5">
    <rdf:RDF>
      <cc:Work
         rdf:about="">
        <dc:format>image/svg+xml</dc:format>
        <dc:type
           rdf:resource="http://purl.org/dc/dcmitype/StillImage" />
        <dc:title></dc:title>
      </cc:Work>
    </rdf:RDF>
  </metadata>
  <g
     inkscape:groupmode="layer"
     id="layer2"
     inkscape:label="Layer 1">
    <path
       style="fill:#000000;fill-opacity:1;stroke:none;stroke-width:80;stroke-linecap:round;stroke-linejoin:miter;stroke-miterlimit:4;stroke-dasharray:none;stroke-opacity:1"
       d="M 90.33631,80.921135 A 15.497024,15.497024 0 0 1 74.839287,96.418159 15.497024,15.497024 0 0 1 59.342263,80.921135 15.497024,15.497024 0 0 1 74.839287,65.424111 15.497024,15.497024 0 0 1 90.33631,80.921135 Z"
       id="path4516" />
    <path
       style="fill:#000000;stroke:#000000;stroke-width:0.26458332px;stroke-linecap:butt;stroke-linejoin:miter;stroke-opacity:1"
       d="m 71.673734,65.683969 c 0,0 1.056445,-0.213528 2.740327,-0.330729 1.742446,-0.121277 3.260044,0.283482 3.260044,0.283482 L 74.434992,55.615843 Z"
       id="path4525"
       inkscape:connector-curvature="0"
       sodipodi:nodetypes="csccc" />
    <path
       style="fill:#000000;stroke:#000000;stroke-width:0.26458332px;stroke-linecap:butt;stroke-linejoin:miter;stroke-opacity:1"
       d="m 62.018843,72.139395 c 0,0 0.323203,-0.421351 1.415589,-1.708164 1.130378,-1.331565 2.312676,-2.18955 2.312676,-2.18955 l -9.265889,-4.627353 z"
       id="path4525-6"
       inkscape:connector-curvature="0"
       sodipodi:nodetypes="csccc" />
    <path
       style="fill:#000000;stroke:#000000;stroke-width:0.26458332px;stroke-linecap:butt;stroke-linejoin:miter;stroke-opacity:1"
       d="m 83.831137,68.299084 c 0,0 0.415694,0.330449 1.683404,1.444947 1.311798,1.153259 2.149188,2.350232 2.149188,2.350232 l 4.787059,-9.184397 z"
       id="path4525-6-2"
       inkscape:connector-curvature="0"
       sodipodi:nodetypes="csccc" />
    <path
       style="fill:#000000;stroke:#000000;stroke-width:0.26458332px;stroke-linecap:butt;stroke-linejoin:miter;stroke-opacity:1"
       d="m 89.704936,76.79114 c 0,0 0.112173,0.519052 0.386612,2.184548 0.283981,1.723419 0.173269,3.180028 0.173269,3.180028 l 9.523272,-4.071422 z"
       id="path4525-6-2-0"
       inkscape:connector-curvature="0"
       sodipodi:nodetypes="csccc" />
    <path
       style="fill:#000000;stroke:#000000;stroke-width:0.26458332px;stroke-linecap:butt;stroke-linejoin:miter;stroke-opacity:1"
       d="m 59.289842,81.97316 c 0,0 -0.0054,-0.531008 0.06134,-2.217649 0.06898,-1.745295 0.470823,-3.149749 0.470823,-3.149749 l -10.148172,2.069736 z"
       id="path4525-6-2-0-0"
       inkscape:connector-curvature="0"
       sodipodi:nodetypes="csccc" />
    <path
       style="fill:#000000;stroke:#000000;stroke-width:0.26458332px;stroke-linecap:butt;stroke-linejoin:miter;stroke-opacity:1"
       d="m 88.9772,87.520672 c 0,0 -0.259693,0.463203 -1.157036,1.892879 -0.928552,1.479394 -1.976146,2.497487 -1.976146,2.497487 l 9.831924,3.256143 z"
       id="path4525-6-2-0-9"
       inkscape:connector-curvature="0"
       sodipodi:nodetypes="csccc" />
    <path
       style="fill:#000000;stroke:#000000;stroke-width:0.26458332px;stroke-linecap:butt;stroke-linejoin:miter;stroke-opacity:1"
       d="m 78.174154,96.092464 c 0,0 -0.524973,0.08001 -2.204204,0.251413 -1.737632,0.17736 -3.184667,-0.0228 -3.184667,-0.0228 l 3.477516,9.755822 z"
       id="path4525-6-2-0-9-1"
       inkscape:connector-curvature="0"
       sodipodi:nodetypes="csccc" />
    <path
       style="fill:#000000;stroke:#000000;stroke-width:0.26458332px;stroke-linecap:butt;stroke-linejoin:miter;stroke-opacity:1"
       d="m 64.76283,92.579278 c 0,0 -0.385476,-0.365248 -1.551775,-1.58547 -1.20686,-1.262659 -1.937312,-2.527732 -1.937312,-2.527732 l -5.565399,8.734733 z"
       id="path4525-6-2-0-9-7"
       inkscape:connector-curvature="0"
       sodipodi:nodetypes="csccc" />
    <path
       style="fill:#1a1a1a;stroke:#000000;stroke-width:0.17310511px;stroke-linecap:butt;stroke-linejoin:miter;stroke-opacity:1"
       d="m 63.248805,70.731493 c 0,0 0.216578,-0.269154 0.948583,-1.091154 0.757464,-0.850588 1.54972,-1.398658 1.54972,-1.398658 l -6.209054,-2.955896 z"
       id="path4525-6-24"
       inkscape:connector-curvature="0"
       sodipodi:nodetypes="csccc" />
    <path
       style="fill:#1a1a1a;stroke:#000000;stroke-width:0.13492054px;stroke-linecap:butt;stroke-linejoin:miter;stroke-opacity:1"
       d="m 59.550635,79.342791 c 0,0 -0.0028,-0.27078 0.03128,-1.130859 0.03518,-0.889989 0.24009,-1.60617 0.24009,-1.60617 l -5.174917,1.055432 z"
       id="path4525-6-2-0-0-9"
       inkscape:connector-curvature="0"
       sodipodi:nodetypes="csccc" />
    <path
       style="fill:#1a1a1a;stroke:#000000;stroke-width:0.20711386px;stroke-linecap:butt;stroke-linejoin:miter;stroke-opacity:1"
       d="m 72.947946,65.670065 c 0,0 0.826976,-0.167142 2.145107,-0.258892 1.363972,-0.09493 2.551938,0.221915 2.551938,0.221915 l -2.535555,-7.844267 z"
       id="path4525-0"
       inkscape:connector-curvature="0"
       sodipodi:nodetypes="csccc" />
    <path
       style="fill:#1a1a1a;stroke:#000000;stroke-width:0.14317596px;stroke-linecap:butt;stroke-linejoin:miter;stroke-opacity:1"
       d="m 78.148905,96.026947 c 0,0 -0.284082,0.0433 -1.192778,0.136049 -0.940298,0.09598 -1.723343,-0.01234 -1.723343,-0.01234 l 1.881815,5.279234 z"
       id="path4525-6-2-0-9-1-6"
       inkscape:connector-curvature="0"
       sodipodi:nodetypes="csccc" />
    <path
       style="fill:#1a1a1a;stroke:#000000;stroke-width:0.1681505px;stroke-linecap:butt;stroke-linejoin:miter;stroke-opacity:1"
       d="m 88.794541,87.426099 c 0,0 -0.165042,0.294379 -0.73533,1.20298 -0.590123,0.940199 -1.255899,1.587227 -1.255899,1.587227 l 6.248477,2.069375 z"
       id="path4525-6-2-0-9-17"
       inkscape:connector-curvature="0"
       sodipodi:nodetypes="csccc" />
    <path
       style="fill:#1a1a1a;stroke:#000000;stroke-width:0.20311677px;stroke-linecap:butt;stroke-linejoin:miter;stroke-opacity:1"
       d="m 89.83883,76.901007 c 0,0 0.08611,0.398469 0.296796,1.677046 0.218009,1.323044 0.133016,2.441261 0.133016,2.441261 l 7.310879,-3.125572 z"
       id="path4525-6-2-0-7"
       inkscape:connector-curvature="0"
       sodipodi:nodetypes="csccc" />
    <path
       style="fill:#1a1a1a;stroke:#000000;stroke-width:0.22707306px;stroke-linecap:butt;stroke-linejoin:miter;stroke-opacity:1"
       d="m 83.766729,68.385385 c 0,0 0.356761,0.283601 1.444746,1.240095 1.125823,0.98976 1.844495,2.017037 1.844495,2.017037 l 4.108393,-7.882315 z"
       id="path4525-6-2-2"
       inkscape:connector-curvature="0"
       sodipodi:nodetypes="csccc" />
    <path
       inkscape:connector-curvature="0"
       style="fill:#1a1a1a;fill-opacity:1;stroke:none;stroke-width:12.16564465;stroke-linecap:round;stroke-linejoin:miter;stroke-miterlimit:4;stroke-dasharray:none;stroke-opacity:1"
       d="m 83.60119,69.460706 a 3.8703574,1.4349471 23.018738 0 1 -4.12727,-0.196506 3.8703574,1.4349471 23.018738 0 1 -2.995612,-2.833868 3.8703574,1.4349471 23.018738 0 1 4.12727,0.196506 3.8703574,1.4349471 23.018738 0 1 2.995612,2.833868 z"
       id="path4516-6" />
    <path
       inkscape:connector-curvature="0"
       style="fill:#333333;fill-opacity:1;stroke:none;stroke-width:6.53460598;stroke-linecap:round;stroke-linejoin:miter;stroke-miterlimit:4;stroke-dasharray:none;stroke-opacity:1"
       d="m 82.715322,68.105021 a 2.1377405,0.74954973 18.031439 0 1 -2.260173,0.05452 2.1377405,0.74954973 18.031439 0 1 -1.806493,-1.374316 2.1377405,0.74954973 18.031439 0 1 2.260174,-0.05452 2.1377405,0.74954973 18.031439 0 1 1.806492,1.374316 z"
       id="path4516-1" />
    <rect
       style="fill:#502d16;fill-opacity:1;stroke:none;stroke-width:80;stroke-linecap:round;stroke-linejoin:miter;stroke-miterlimit:4;stroke-dasharray:none;stroke-opacity:1"
       id="rect4787"
       width="1.3363476"
       height="56.92841"
       x="136.44109"
       y="42.555645" />
    <path
       style="fill:#ff0000;stroke:none;stroke-width:0.26458332px;stroke-linecap:butt;stroke-linejoin:miter;stroke-opacity:1"
       d="m 137.77743,42.555644 v 26.285959 c 0,0 6.80285,-3.354287 10.48031,-3.46114 5.19614,-0.15098 9.86927,4.077067 15.06731,4.022406 3.4745,-0.03654 10.0126,-2.899874 10.0126,-2.899874 l 0,-23.760259 c -2.96335,-0.01559 -6.37787,2.666763 -9.73195,2.572465 -5.6402,-0.158571 -9.72928,-5.385248 -16.09632,-5.238483 -3.34668,0.07714 -6.7686,2.494516 -9.73195,2.478926 z"
       id="path4791"
       inkscape:connector-curvature="0"
       sodipodi:nodetypes="ccaaccasc" />
    <path
       inkscape:connector-curvature="0"
       style="fill:#000000;fill-opacity:1;stroke:none;stroke-width:80;stroke-linecap:round;stroke-linejoin:miter;stroke-miterlimit:4;stroke-dasharray:none;stroke-opacity:1"
       d="M 101.84854,180.28851 A 15.497024,15.497024 0 0 1 86.351514,195.78553 15.497024,15.497024 0 0 1 70.854489,180.28851 15.497024,15.497024 0 0 1 86.351514,164.79148 15.497024,15.497024 0 0 1 101.84854,180.28851 Z"
       id="path4516-2"
       inkscape:export-filename="C:\Users\Bartek\logo.png"
       inkscape:export-xdpi="352"
       inkscape:export-ydpi="352" />
    <path
       style="fill:#000000;stroke:#000000;stroke-width:0.26458332px;stroke-linecap:butt;stroke-linejoin:miter;stroke-opacity:1"
       d="m 83.185961,165.05134 c 0,0 1.056445,-0.21353 2.740327,-0.33073 1.742446,-0.12128 3.260043,0.28348 3.260043,0.28348 l -3.239112,-10.02088 z"
       id="path4525-1"
       inkscape:connector-curvature="0"
       sodipodi:nodetypes="csccc"
       inkscape:export-filename="C:\Users\Bartek\logo.png"
       inkscape:export-xdpi="352"
       inkscape:export-ydpi="352" />
    <path
       style="fill:#000000;stroke:#000000;stroke-width:0.26458332px;stroke-linecap:butt;stroke-linejoin:miter;stroke-opacity:1"
       d="m 73.531069,171.50676 c 0,0 0.323204,-0.42135 1.41559,-1.70816 1.130378,-1.33156 2.312676,-2.18955 2.312676,-2.18955 l -9.265889,-4.62735 z"
       id="path4525-6-0"
       inkscape:connector-curvature="0"
       sodipodi:nodetypes="csccc"
       inkscape:export-filename="C:\Users\Bartek\logo.png"
       inkscape:export-xdpi="352"
       inkscape:export-ydpi="352" />
    <path
       style="fill:#000000;stroke:#000000;stroke-width:0.26458332px;stroke-linecap:butt;stroke-linejoin:miter;stroke-opacity:1"
       d="m 95.343365,167.66645 c 0,0 0.415692,0.33045 1.683403,1.44495 1.311797,1.15326 2.149187,2.35023 2.149187,2.35023 l 4.787055,-9.18439 z"
       id="path4525-6-2-8"
       inkscape:connector-curvature="0"
       sodipodi:nodetypes="csccc"
       inkscape:export-filename="C:\Users\Bartek\logo.png"
       inkscape:export-xdpi="352"
       inkscape:export-ydpi="352" />
    <path
       style="fill:#000000;stroke:#000000;stroke-width:0.26458332px;stroke-linecap:butt;stroke-linejoin:miter;stroke-opacity:1"
       d="m 101.21716,176.15851 c 0,0 0.11217,0.51905 0.38661,2.18455 0.28399,1.72342 0.17327,3.18003 0.17327,3.18003 l 9.52328,-4.07143 z"
       id="path4525-6-2-0-8"
       inkscape:connector-curvature="0"
       sodipodi:nodetypes="csccc"
       inkscape:export-filename="C:\Users\Bartek\logo.png"
       inkscape:export-xdpi="352"
       inkscape:export-ydpi="352" />
    <path
       style="fill:#000000;stroke:#000000;stroke-width:0.26458332px;stroke-linecap:butt;stroke-linejoin:miter;stroke-opacity:1"
       d="m 70.802068,181.34053 c 0,0 -0.0054,-0.53101 0.06134,-2.21765 0.06898,-1.74529 0.470822,-3.14975 0.470822,-3.14975 l -10.14817,2.06974 z"
       id="path4525-6-2-0-0-3"
       inkscape:connector-curvature="0"
       sodipodi:nodetypes="csccc"
       inkscape:export-filename="C:\Users\Bartek\logo.png"
       inkscape:export-xdpi="352"
       inkscape:export-ydpi="352" />
    <path
       style="fill:#000000;stroke:#000000;stroke-width:0.26458332px;stroke-linecap:butt;stroke-linejoin:miter;stroke-opacity:1"
       d="m 100.48943,186.88804 c 0,0 -0.2597,0.46321 -1.15704,1.89288 -0.928553,1.4794 -1.976146,2.49749 -1.976146,2.49749 l 9.831926,3.25614 z"
       id="path4525-6-2-0-9-6"
       inkscape:connector-curvature="0"
       sodipodi:nodetypes="csccc"
       inkscape:export-filename="C:\Users\Bartek\logo.png"
       inkscape:export-xdpi="352"
       inkscape:export-ydpi="352" />
    <path
       style="fill:#000000;stroke:#000000;stroke-width:0.26458332px;stroke-linecap:butt;stroke-linejoin:miter;stroke-opacity:1"
       d="m 89.68638,195.45983 c 0,0 -0.524973,0.08 -2.204204,0.25142 -1.737631,0.17736 -3.184666,-0.0228 -3.184666,-0.0228 l 3.477515,9.75582 z"
       id="path4525-6-2-0-9-1-1"
       inkscape:connector-curvature="0"
       sodipodi:nodetypes="csccc"
       inkscape:export-filename="C:\Users\Bartek\logo.png"
       inkscape:export-xdpi="352"
       inkscape:export-ydpi="352" />
    <path
       style="fill:#000000;stroke:#000000;stroke-width:0.26458332px;stroke-linecap:butt;stroke-linejoin:miter;stroke-opacity:1"
       d="m 76.275057,191.94665 c 0,0 -0.385477,-0.36525 -1.551776,-1.58547 -1.206859,-1.26266 -1.937312,-2.52773 -1.937312,-2.52773 l -5.565398,8.73473 z"
       id="path4525-6-2-0-9-7-6"
       inkscape:connector-curvature="0"
       sodipodi:nodetypes="csccc"
       inkscape:export-filename="C:\Users\Bartek\logo.png"
       inkscape:export-xdpi="352"
       inkscape:export-ydpi="352" />
    <path
       style="fill:#1a1a1a;stroke:#000000;stroke-width:0.17310511px;stroke-linecap:butt;stroke-linejoin:miter;stroke-opacity:1"
       d="m 74.761031,170.09886 c 0,0 0.216579,-0.26915 0.948583,-1.09115 0.757464,-0.85059 1.549721,-1.39866 1.549721,-1.39866 l -6.209054,-2.9559 z"
       id="path4525-6-24-8"
       inkscape:connector-curvature="0"
       sodipodi:nodetypes="csccc"
       inkscape:export-filename="C:\Users\Bartek\logo.png"
       inkscape:export-xdpi="352"
       inkscape:export-ydpi="352" />
    <path
       style="fill:#1a1a1a;stroke:#000000;stroke-width:0.13492054px;stroke-linecap:butt;stroke-linejoin:miter;stroke-opacity:1"
       d="m 71.062861,178.71016 c 0,0 -0.0028,-0.27078 0.03128,-1.13086 0.03518,-0.88999 0.24009,-1.60617 0.24009,-1.60617 l -5.174916,1.05543 z"
       id="path4525-6-2-0-0-9-3"
       inkscape:connector-curvature="0"
       sodipodi:nodetypes="csccc"
       inkscape:export-filename="C:\Users\Bartek\logo.png"
       inkscape:export-xdpi="352"
       inkscape:export-ydpi="352" />
    <path
       style="fill:#1a1a1a;stroke:#000000;stroke-width:0.20711386px;stroke-linecap:butt;stroke-linejoin:miter;stroke-opacity:1"
       d="m 84.460172,165.03743 c 0,0 0.826977,-0.16714 2.145108,-0.25889 1.363973,-0.0949 2.551939,0.22192 2.551939,0.22192 l -2.535556,-7.84427 z"
       id="path4525-0-8"
       inkscape:connector-curvature="0"
       sodipodi:nodetypes="csccc"
       inkscape:export-filename="C:\Users\Bartek\logo.png"
       inkscape:export-xdpi="352"
       inkscape:export-ydpi="352" />
    <path
       style="fill:#1a1a1a;stroke:#000000;stroke-width:0.14317597px;stroke-linecap:butt;stroke-linejoin:miter;stroke-opacity:1"
       d="m 89.661131,195.39432 c 0,0 -0.284081,0.0433 -1.192776,0.13605 -0.9403,0.096 -1.723344,-0.0123 -1.723344,-0.0123 l 1.881813,5.27923 z"
       id="path4525-6-2-0-9-1-6-6"
       inkscape:connector-curvature="0"
       sodipodi:nodetypes="csccc"
       inkscape:export-filename="C:\Users\Bartek\logo.png"
       inkscape:export-xdpi="352"
       inkscape:export-ydpi="352" />
    <path
       style="fill:#1a1a1a;stroke:#000000;stroke-width:0.1681505px;stroke-linecap:butt;stroke-linejoin:miter;stroke-opacity:1"
       d="m 100.30677,186.79347 c 0,0 -0.16504,0.29438 -0.735332,1.20298 -0.590124,0.9402 -1.2559,1.58723 -1.2559,1.58723 l 6.248472,2.06937 z"
       id="path4525-6-2-0-9-17-5"
       inkscape:connector-curvature="0"
       sodipodi:nodetypes="csccc"
       inkscape:export-filename="C:\Users\Bartek\logo.png"
       inkscape:export-xdpi="352"
       inkscape:export-ydpi="352" />
    <path
       style="fill:#1a1a1a;stroke:#000000;stroke-width:0.20311677px;stroke-linecap:butt;stroke-linejoin:miter;stroke-opacity:1"
       d="m 101.35106,176.26838 c 0,0 0.0861,0.39847 0.29679,1.67704 0.21801,1.32305 0.13302,2.44126 0.13302,2.44126 l 7.31088,-3.12557 z"
       id="path4525-6-2-0-7-6"
       inkscape:connector-curvature="0"
       sodipodi:nodetypes="csccc"
       inkscape:export-filename="C:\Users\Bartek\logo.png"
       inkscape:export-xdpi="352"
       inkscape:export-ydpi="352" />
    <path
       style="fill:#1a1a1a;stroke:#000000;stroke-width:0.22707306px;stroke-linecap:butt;stroke-linejoin:miter;stroke-opacity:1"
       d="m 95.278955,167.75275 c 0,0 0.356761,0.2836 1.444746,1.2401 1.125824,0.98976 1.844496,2.01704 1.844496,2.01704 l 4.108393,-7.88232 z"
       id="path4525-6-2-2-0"
       inkscape:connector-curvature="0"
       sodipodi:nodetypes="csccc"
       inkscape:export-filename="C:\Users\Bartek\logo.png"
       inkscape:export-xdpi="352"
       inkscape:export-ydpi="352" />
    <path
       inkscape:connector-curvature="0"
       style="fill:#1a1a1a;fill-opacity:1;stroke:none;stroke-width:12.16564465;stroke-linecap:round;stroke-linejoin:miter;stroke-miterlimit:4;stroke-dasharray:none;stroke-opacity:1"
       d="m 95.113416,168.82808 a 3.8703575,1.4349471 23.018738 0 1 -4.12727,-0.19651 3.8703575,1.4349471 23.018738 0 1 -2.99561,-2.83387 3.8703575,1.4349471 23.018738 0 1 4.12727,0.19651 3.8703575,1.4349471 23.018738 0 1 2.99561,2.83387 z"
       id="path4516-6-7"
       inkscape:export-filename="C:\Users\Bartek\logo.png"
       inkscape:export-xdpi="352"
       inkscape:export-ydpi="352" />
    <path
       inkscape:connector-curvature="0"
       style="fill:#333333;fill-opacity:1;stroke:none;stroke-width:6.53460598;stroke-linecap:round;stroke-linejoin:miter;stroke-miterlimit:4;stroke-dasharray:none;stroke-opacity:1"
       d="m 94.227548,167.47239 a 2.1377405,0.74954974 18.031439 0 1 -2.260171,0.0545 2.1377405,0.74954974 18.031439 0 1 -1.806493,-1.37432 2.1377405,0.74954974 18.031439 0 1 2.260174,-0.0545 2.1377405,0.74954974 18.031439 0 1 1.80649,1.37432 z"
       id="path4516-1-4"
       inkscape:export-filename="C:\Users\Bartek\logo.png"
       inkscape:export-xdpi="352"
       inkscape:export-ydpi="352" />
    <rect
       style="fill:#502d16;fill-opacity:1;stroke:none;stroke-width:80;stroke-linecap:round;stroke-linejoin:miter;stroke-miterlimit:4;stroke-dasharray:none;stroke-opacity:1"
       id="rect4787-3"
       width="1.3363476"
       height="56.92841"
       x="146.40024"
       y="103.98902"
       transform="rotate(20.163612)"
       inkscape:export-filename="C:\Users\Bartek\logo.png"
       inkscape:export-xdpi="352"
       inkscape:export-ydpi="352" />
    <path
       style="fill:#ff0000;stroke:none;stroke-width:0.26458332px;stroke-linecap:butt;stroke-linejoin:miter;stroke-opacity:1"
       d="m 102.8369,148.54085 -9.060819,24.67495 c 0,0 7.542139,-0.80374 11.031049,0.36358 4.92973,1.64939 7.85903,7.22915 12.75734,8.96961 3.27413,1.16341 10.39854,0.72922 10.39854,0.72922 l 8.19021,-22.30405 c -2.77635,-1.03612 -6.90622,0.30486 -10.02223,-0.93981 -5.23987,-2.09304 -7.27669,-8.40891 -13.3041,-10.46586 -3.16814,-1.08124 -7.21363,0.008 -9.98999,-1.02764 z"
       id="path4791-2"
       inkscape:connector-curvature="0"
       sodipodi:nodetypes="ccaaccasc"
       inkscape:export-filename="C:\Users\Bartek\logo.png"
       inkscape:export-xdpi="352"
       inkscape:export-ydpi="352" />
  </g>
</svg>
