<?xml version="1.0" encoding="UTF-8" standalone="no"?>
<!-- Created with Inkscape (http://www.inkscape.org/) -->

<svg
   xmlns:dc="http://purl.org/dc/elements/1.1/"
   xmlns:cc="http://creativecommons.org/ns#"
   xmlns:rdf="http://www.w3.org/1999/02/22-rdf-syntax-ns#"
   xmlns:svg="http://www.w3.org/2000/svg"
   xmlns="http://www.w3.org/2000/svg"
   xmlns:sodipodi="http://sodipodi.sourceforge.net/DTD/sodipodi-0.dtd"
   xmlns:inkscape="http://www.inkscape.org/namespaces/inkscape"
   width="256px"
   height="256px"
   viewBox="0 0 256 256"
   version="1.1"
   id="SVGRoot"
   inkscape:export-filename="C:\Users\Bartek\Desktop\saper_mina.png"
   inkscape:export-xdpi="96.000008"
   inkscape:export-ydpi="96.000008"
   inkscape:version="0.92.1 r15371"
   sodipodi:docname="saper_mina.svg">
  <sodipodi:namedview
     id="base"
     pagecolor="#ffffff"
     bordercolor="#666666"
     borderopacity="1.0"
     inkscape:pageopacity="0.0"
     inkscape:pageshadow="2"
     inkscape:zoom="2"
     inkscape:cx="263.61836"
     inkscape:cy="74.416306"
     inkscape:document-units="px"
     inkscape:current-layer="layer1"
     showgrid="false"
     inkscape:window-width="1920"
     inkscape:window-height="1017"
     inkscape:window-x="-8"
     inkscape:window-y="-8"
     inkscape:window-maximized="1"
     inkscape:grid-bbox="true" />
  <defs
     id="defs6073" />
  <metadata
     id="metadata6076">
    <rdf:RDF>
      <cc:Work
         rdf:about="">
        <dc:format>image/svg+xml</dc:format>
        <dc:type
           rdf:resource="http://purl.org/dc/dcmitype/StillImage" />
        <dc:title></dc:title>
      </cc:Work>
    </rdf:RDF>
  </metadata>
  <g
     id="layer1"
     inkscape:groupmode="layer"
     inkscape:label="Layer 1">
    <path
       inkscape:connector-curvature="0"
       style="fill:#000000;fill-opacity:1;stroke:none;stroke-width:397.25671387;stroke-linecap:round;stroke-linejoin:miter;stroke-miterlimit:4;stroke-dasharray:none;stroke-opacity:1"
       d="m 204.88951,128.27219 a 76.953717,76.953717 0 0 1 -76.95373,76.9537 76.953717,76.953717 0 0 1 -76.953709,-76.9537 76.953717,76.953717 0 0 1 76.953709,-76.953717 76.953717,76.953717 0 0 1 76.95373,76.953717 z"
       id="path4516" />
    <path
       style="fill:#000000;stroke:#000000;stroke-width:1.31384385px;stroke-linecap:butt;stroke-linejoin:miter;stroke-opacity:1"
       d="m 112.21657,52.608851 c 0,0 5.246,-1.06031 13.60768,-1.642305 8.65247,-0.602224 16.18842,1.407694 16.18842,1.407694 L 125.92818,2.6134649 Z"
       id="path4525"
       inkscape:connector-curvature="0"
       sodipodi:nodetypes="csccc" />
    <path
       style="fill:#000000;stroke:#000000;stroke-width:1.31384385px;stroke-linecap:butt;stroke-linejoin:miter;stroke-opacity:1"
       d="m 64.273188,84.66462 c 0,0 1.604933,-2.092295 7.029404,-8.482241 C 76.915718,69.57021 82.786668,65.309716 82.786668,65.309716 L 36.774957,42.331624 Z"
       id="path4525-6"
       inkscape:connector-curvature="0"
       sodipodi:nodetypes="csccc" />
    <path
       style="fill:#000000;stroke:#000000;stroke-width:1.31384385px;stroke-linecap:butt;stroke-linejoin:miter;stroke-opacity:1"
       d="m 172.58671,65.594755 c 0,0 2.0642,1.640912 8.3593,7.17519 6.51398,5.726744 10.67223,11.670573 10.67223,11.670573 l 23.77113,-45.607057 z"
       id="path4525-6-2"
       inkscape:connector-curvature="0"
       sodipodi:nodetypes="csccc" />
    <path
       style="fill:#000000;stroke:#000000;stroke-width:1.31384385px;stroke-linecap:butt;stroke-linejoin:miter;stroke-opacity:1"
       d="m 201.75428,107.76384 c 0,0 0.55701,2.57746 1.91979,10.84783 1.41018,8.55801 0.86042,15.79109 0.86042,15.79109 l 47.28981,-20.21749 z"
       id="path4525-6-2-0"
       inkscape:connector-curvature="0"
       sodipodi:nodetypes="csccc" />
    <path
       style="fill:#000000;stroke:#000000;stroke-width:1.31384385px;stroke-linecap:butt;stroke-linejoin:miter;stroke-opacity:1"
       d="m 50.721762,133.49625 c 0,0 -0.02682,-2.63683 0.304598,-11.0122 0.342534,-8.66665 2.337969,-15.64074 2.337969,-15.64074 l -50.3928719,10.2777 z"
       id="path4525-6-2-0-0"
       inkscape:connector-curvature="0"
       sodipodi:nodetypes="csccc" />
    <path
       style="fill:#000000;stroke:#000000;stroke-width:1.31384385px;stroke-linecap:butt;stroke-linejoin:miter;stroke-opacity:1"
       d="m 198.14056,161.04356 c 0,0 -1.28956,2.30016 -5.74552,9.39949 -4.61092,7.34624 -9.81296,12.4018 -9.81296,12.4018 l 48.82248,16.16906 z"
       id="path4525-6-2-0-9"
       inkscape:connector-curvature="0"
       sodipodi:nodetypes="csccc" />
    <path
       style="fill:#000000;stroke:#000000;stroke-width:1.31384385px;stroke-linecap:butt;stroke-linejoin:miter;stroke-opacity:1"
       d="m 144.49576,203.60859 c 0,0 -2.60685,0.39733 -10.94544,1.24845 -8.62856,0.88072 -15.81412,-0.11325 -15.81412,-0.11325 l 17.26833,48.44458 z"
       id="path4525-6-2-0-9-1"
       inkscape:connector-curvature="0"
       sodipodi:nodetypes="csccc" />
    <path
       style="fill:#000000;stroke:#000000;stroke-width:1.31384385px;stroke-linecap:butt;stroke-linejoin:miter;stroke-opacity:1"
       d="m 77.899038,186.16314 c 0,0 -1.914171,-1.81371 -7.705671,-7.87298 -5.992916,-6.26999 -9.620129,-12.55198 -9.620129,-12.55198 l -27.636153,43.37415 z"
       id="path4525-6-2-0-9-7"
       inkscape:connector-curvature="0"
       sodipodi:nodetypes="csccc" />
    <path
       style="fill:#1a1a1a;stroke:#000000;stroke-width:0.85958964px;stroke-linecap:butt;stroke-linejoin:miter;stroke-opacity:1"
       d="m 70.380821,77.673395 c 0,0 1.075466,-1.336548 4.710388,-5.41836 3.76135,-4.223769 7.695459,-6.945319 7.695459,-6.945319 L 51.954312,50.631595 Z"
       id="path4525-6-24"
       inkscape:connector-curvature="0"
       sodipodi:nodetypes="csccc" />
    <path
       style="fill:#1a1a1a;stroke:#000000;stroke-width:0.66997623px;stroke-linecap:butt;stroke-linejoin:miter;stroke-opacity:1"
       d="m 52.016785,120.4346 c 0,0 -0.0139,-1.34461 0.155327,-5.61553 0.174693,-4.41941 1.192217,-7.97576 1.192217,-7.97576 l -25.697134,5.24097 z"
       id="path4525-6-2-0-0-9"
       inkscape:connector-curvature="0"
       sodipodi:nodetypes="csccc" />
    <path
       style="fill:#1a1a1a;stroke:#000000;stroke-width:1.02846718px;stroke-linecap:butt;stroke-linejoin:miter;stroke-opacity:1"
       d="m 118.54394,52.53981 c 0,0 4.10652,-0.829983 10.65198,-1.285584 6.77309,-0.471395 12.67218,1.101974 12.67218,1.101974 L 129.27727,13.403841 Z"
       id="path4525-0"
       inkscape:connector-curvature="0"
       sodipodi:nodetypes="csccc" />
    <path
       style="fill:#1a1a1a;stroke:#000000;stroke-width:0.71097034px;stroke-linecap:butt;stroke-linejoin:miter;stroke-opacity:1"
       d="m 144.37039,203.28326 c 0,0 -1.41068,0.21503 -5.92299,0.67558 -4.66925,0.47662 -8.55762,-0.0613 -8.55762,-0.0613 l 9.34454,26.21514 z"
       id="path4525-6-2-0-9-1-6"
       inkscape:connector-curvature="0"
       sodipodi:nodetypes="csccc" />
    <path
       style="fill:#1a1a1a;stroke:#000000;stroke-width:0.83498645px;stroke-linecap:butt;stroke-linejoin:miter;stroke-opacity:1"
       d="m 197.23352,160.57395 c 0,0 -0.81954,1.4618 -3.65144,5.97364 -2.93037,4.66876 -6.23643,7.8817 -6.23643,7.8817 l 31.02812,10.27593 z"
       id="path4525-6-2-0-9-17"
       inkscape:connector-curvature="0"
       sodipodi:nodetypes="csccc" />
    <path
       style="fill:#1a1a1a;stroke:#000000;stroke-width:1.00861895px;stroke-linecap:butt;stroke-linejoin:miter;stroke-opacity:1"
       d="m 202.41915,108.30942 c 0,0 0.42759,1.97867 1.47381,8.32771 1.08257,6.56986 0.66051,12.1226 0.66051,12.1226 l 36.30371,-15.52068 z"
       id="path4525-6-2-0-7"
       inkscape:connector-curvature="0"
       sodipodi:nodetypes="csccc" />
    <path
       style="fill:#1a1a1a;stroke:#000000;stroke-width:1.12757897px;stroke-linecap:butt;stroke-linejoin:miter;stroke-opacity:1"
       d="m 172.26686,66.023303 c 0,0 1.77158,1.408285 7.1742,6.157948 5.59051,4.914866 9.15923,10.016022 9.15923,10.016022 l 20.40108,-39.141288 z"
       id="path4525-6-2-2"
       inkscape:connector-curvature="0"
       sodipodi:nodetypes="csccc" />
    <path
       inkscape:connector-curvature="0"
       style="fill:#1a1a1a;fill-opacity:1;stroke:none;stroke-width:60.41105652;stroke-linecap:round;stroke-linejoin:miter;stroke-miterlimit:4;stroke-dasharray:none;stroke-opacity:1"
       d="m 171.44484,71.363029 a 19.21907,7.1255302 23.018738 0 1 -20.49482,-0.975781 19.21907,7.1255302 23.018738 0 1 -14.87533,-14.072172 19.21907,7.1255302 23.018738 0 1 20.49483,0.97579 19.21907,7.1255302 23.018738 0 1 14.87532,14.072163 z"
       id="path4516-6" />
    <path
       inkscape:connector-curvature="0"
       style="fill:#333333;fill-opacity:1;stroke:none;stroke-width:32.44895172;stroke-linecap:round;stroke-linejoin:miter;stroke-miterlimit:4;stroke-dasharray:none;stroke-opacity:1"
       d="m 167.04589,64.631102 a 10.615398,3.722046 18.031439 0 1 -11.22336,0.270731 10.615398,3.722046 18.031439 0 1 -8.97052,-6.82446 10.615398,3.722046 18.031439 0 1 11.22336,-0.270732 10.615398,3.722046 18.031439 0 1 8.97052,6.824461 z"
       id="path4516-1" />
  </g>
</svg>
